<svg xmlns="http://www.w3.org/2000/svg" xmlns:xlink="http://www.w3.org/1999/xlink" width="834" height="203.205" viewBox="0 0 834 203.205">
  <defs>
    <clipPath id="clip-path">
      <rect id="Ret창ngulo_3327" data-name="Ret창ngulo 3327" width="834" height="203.205" fill="none" stroke="#0064bd" stroke-width="1"/>
    </clipPath>
  </defs>
  <g id="Grupo_4305" data-name="Grupo 4305" transform="translate(0 0)" opacity="0.432" style="mix-blend-mode: multiply;isolation: isolate">
    <g id="Grupo_4304" data-name="Grupo 4304" transform="translate(0 0)" clip-path="url(#clip-path)">
      <path id="Caminho_1442" data-name="Caminho 1442" d="M137.764,151.587H122.326v34.322H86.147V151.587H.25v-6.925L59.161,6.95H97.18L49.591,118H87.132L93.312,75.4h29.014V118h15.438Z" transform="translate(0.449 12.487)" fill="none" stroke="#0064bd" stroke-width="0.5"/>
      <path id="Caminho_1443" data-name="Caminho 1443" d="M56.177,133.183H97.25c0,18.2,15.044,26.986,31.7,26.986,15.343,0,30.339-8.1,30.339-22.142,0-14.6-17.175-18.615-37.6-23.384-28.4-7-62.9-15.245-62.9-55.832,0-36.134,26.617-56.489,68.328-56.489,43.305,0,67.917,23.121,67.917,60.651H154.769c0-16.221-13.383-23.831-28.622-23.831-13.212,0-26.594,5.6-26.594,17.936,0,13.257,16.367,17.27,36.3,22.041,28.72,7.266,64.779,16.218,64.779,58.422,0,40.685-32.412,60.427-71.41,60.427C85.971,197.967,56.177,173.675,56.177,133.183Z" transform="translate(100.937 4.173)" fill="none" stroke="#0064bd" stroke-width="0.5"/>
      <path id="Caminho_1444" data-name="Caminho 1444" d="M265.74,93.767a91.064,91.064,0,0,1-.761,11.52H155c3.418,19.835,16.456,30.753,35.513,30.753,13.651,0,24.858-6.458,30.826-16.856H262.63c-10.566,31.682-38.383,51.866-72.12,51.866-42.908,0-75.373-33.223-75.373-76.769,0-43.769,32.244-76.774,75.373-76.774,44.625,0,75.233,34.4,75.233,76.26ZM156.034,78.451h70.42c-5.554-17.768-18.313-27.4-35.944-27.4C173.016,51.051,160.6,61.254,156.034,78.451Z" transform="translate(206.875 31.457)" fill="none" stroke="#0064bd" stroke-width="0.5"/>
      <rect id="Ret창ngulo_3326" data-name="Ret창ngulo 3326" width="39.292" height="197.698" transform="translate(500.563 0.699)" fill="none" stroke="#0064bd" stroke-width="0.5"/>
      <path id="Caminho_1445" data-name="Caminho 1445" d="M353.692,93.767a91.048,91.048,0,0,1-.758,11.52H242.951c3.415,19.835,16.453,30.753,35.511,30.753,13.654,0,24.858-6.458,30.829-16.856h41.292c-10.566,31.682-38.38,51.866-72.118,51.866-42.911,0-75.376-33.223-75.376-76.769,0-43.769,32.244-76.774,75.376-76.774,44.622,0,75.23,34.4,75.23,76.26ZM243.986,78.451h70.423c-5.557-17.768-18.313-27.4-35.947-27.4C260.968,51.051,248.551,61.254,243.986,78.451Z" transform="translate(364.904 31.457)" fill="none" stroke="#0064bd" stroke-width="0.5"/>
      <path id="Caminho_1446" data-name="Caminho 1446" d="M365.928,153.676v34.985H338.014c-31.976,0-51.617-19.647-51.617-51.891V74.924H260.118V66.436L317.511,5.419h7.512V43.34h40.1V74.924H325.683v56.635c0,14.043,8.074,22.117,22.385,22.117Z" transform="translate(467.372 9.738)" fill="none" stroke="#0064bd" stroke-width="0.5"/>
    </g>
  </g>
</svg>
