<svg id="Grupo_5258" data-name="Grupo 5258" xmlns="http://www.w3.org/2000/svg" width="260" height="63.874" viewBox="0 0 260 63.874">
  <g id="Grupo_5254" data-name="Grupo 5254" transform="translate(0 0)">
    <path id="Caminho_1692" data-name="Caminho 1692" d="M2266.513,86.807h-5.5V98.353h-8.87V86.807H2223.8V84.925l19.451-43.456h9.407l-16.635,37.2h16.287l1.525-15.852h7.181V78.671h5.5Z" transform="translate(-2223.8 -35.603)" fill="#1d6ab7"/>
    <path id="Caminho_1693" data-name="Caminho 1693" d="M2564.286,56.32h9.971c0,6.693,5.509,10.391,12.528,10.391,6.373,0,11.82-3.345,11.82-8.852,0-5.958-6.411-7.46-13.631-9.158-9.163-2.224-19.675-4.754-19.675-17.11,0-10.805,8.188-17.185,20.948-17.185,12.992,0,20.68,7.077,20.68,18.37h-9.716c0-5.972-4.934-9.207-11.185-9.207-5.968,0-10.9,2.734-10.9,7.605,0,5.53,6.154,7.033,13.264,8.73,9.31,2.309,20.274,4.975,20.274,17.844,0,11.98-9.668,18.346-21.791,18.346-13.432,0-22.585-7.54-22.585-19.775" transform="translate(-2515.382 -12.428)" fill="#1d6ab7"/>
    <path id="Caminho_1694" data-name="Caminho 1694" d="M2969.988,132.4a29.555,29.555,0,0,1-.2,3.118H2932.3c1.187,7.486,6.576,12.088,14.138,12.088a13.866,13.866,0,0,0,12.43-6.763h10c-3.677,9.752-12.11,15.669-22.425,15.669-13.5,0-23.732-10.424-23.732-24.22,0-13.821,10.2-24.221,23.732-24.221,14.14,0,23.55,10.888,23.55,24.33Zm-23.549-15.755c-7.143,0-12.344,4.308-13.9,11.16h27.93c-1.7-7.016-6.992-11.159-14.029-11.159Z" transform="translate(-2822.323 -92.643)" fill="#1d6ab7"/>
    <rect id="Retângulo_3349" data-name="Retângulo 3349" width="9.495" height="62.749" transform="translate(157.756 0)" fill="#1d6ab7"/>
    <path id="Caminho_1695" data-name="Caminho 1695" d="M3505.986,132.4a29.555,29.555,0,0,1-.2,3.118H3468.3c1.187,7.486,6.575,12.088,14.138,12.088a13.865,13.865,0,0,0,12.429-6.763h10c-3.676,9.752-12.11,15.669-22.424,15.669-13.5,0-23.733-10.424-23.733-24.22,0-13.821,10.2-24.221,23.733-24.221,14.138,0,23.55,10.888,23.55,24.33Zm-23.549-15.755c-7.143,0-12.345,4.308-13.9,11.16h27.931c-1.7-7.016-6.993-11.159-14.03-11.159Z" transform="translate(-3281.335 -92.643)" fill="#1d6ab7"/>
    <path id="Caminho_1696" data-name="Caminho 1696" d="M3845.1,89.187v8.625h-7.058c-10.118,0-16.362-6.244-16.362-16.448V59.755h-8.262V57.918l16.066-17.08h1.616V51.621h13.743v8.134H3831.17v20.86c0,5.507,3.065,8.572,8.657,8.572Z" transform="translate(-3585.096 -35.063)" fill="#1d6ab7"/>
  </g>
</svg>
