<svg xmlns="http://www.w3.org/2000/svg" width="122" height="29.572" viewBox="0 0 122 29.572">
  <g id="Grupo_5257" data-name="Grupo 5257" transform="translate(0)">
    <path id="Caminho_1697" data-name="Caminho 1697" d="M346.127,32h6.019c0,2.667,2.2,3.955,4.646,3.955,2.248,0,4.445-1.187,4.445-3.245,0-2.14-2.517-2.728-5.51-3.427-4.162-1.025-9.217-2.234-9.217-8.181,0-5.295,3.9-8.278,10.013-8.278,6.345,0,9.952,3.388,9.952,8.887h-5.9c0-2.377-1.961-3.492-4.194-3.492-1.936,0-3.9.821-3.9,2.628,0,1.943,2.4,2.531,5.32,3.23,4.208,1.065,9.493,2.377,9.493,8.561,0,5.962-4.75,8.855-10.464,8.855-6.338,0-10.7-3.56-10.7-9.493" transform="translate(-323.208 -11.979)" fill="#fff"/>
    <path id="Caminho_1698" data-name="Caminho 1698" d="M733.1,117.988a13.324,13.324,0,0,1-.111,1.688H716.871a4.964,4.964,0,0,0,5.2,4.507,5.054,5.054,0,0,0,4.517-2.47h6.051a11.656,11.656,0,1,1,.456-3.725Zm-16.076-2.244h10.319a5.24,5.24,0,0,0-5.267-4.015,5,5,0,0,0-5.052,4.015" transform="translate(-663.949 -99.74)" fill="#fff"/>
    <rect id="Retângulo_3350" data-name="Retângulo 3350" width="5.757" height="28.97" transform="translate(73.245 0)" fill="#fff"/>
    <path id="Caminho_1699" data-name="Caminho 1699" d="M1277.431,117.988a13.336,13.336,0,0,1-.111,1.688H1261.2a4.964,4.964,0,0,0,5.2,4.507,5.053,5.053,0,0,0,4.517-2.47h6.051a11.656,11.656,0,1,1,.456-3.725Zm-16.076-2.244h10.319a5.24,5.24,0,0,0-5.267-4.015,5,5,0,0,0-5.052,4.015" transform="translate(-1172.237 -99.74)" fill="#fff"/>
    <path id="Caminho_1700" data-name="Caminho 1700" d="M1623.815,53.718v5.127h-4.09c-4.685,0-7.564-2.879-7.564-7.6V42.178h-3.851V40.934l8.41-8.941h1.1V37.55h5.876v4.629h-5.779v8.3a2.963,2.963,0,0,0,3.28,3.241Z" transform="translate(-1501.815 -29.875)" fill="#fff"/>
    <path id="Caminho_1701" data-name="Caminho 1701" d="M8.632,41.469,0,61.649v1.015H12.587v5.03h5.3v-5.03h2.262V57.741H17.889V51.5H13.637l-.906,6.241H7.23L14.2,41.469Z" transform="translate(0 -38.723)" fill="#fff"/>
  </g>
</svg>
