<svg xmlns="http://www.w3.org/2000/svg" width="1090" height="585.837" viewBox="0 0 1090 585.837">
  <g id="Grupo_37" data-name="Grupo 37" transform="translate(-2401 -2752.491)">
    <g id="Grupo_33" data-name="Grupo 33">
      <g id="Grupo_31" data-name="Grupo 31">
        <path id="Caminho_53" data-name="Caminho 53" d="M2456.457,3197.147c-31.422,0-55.457-24.194-55.457-55.491s23.879-54.86,55.616-54.86c27.043,0,48.035,17.145,53.116,42.851h-28.044a26.85,26.85,0,0,0-25.233-16.3c-15.314,0-26.832,12.292-26.832,28.469s11.711,28.783,26.832,28.783c11.411,0,20.432-6.347,25.2-17.513h28.431c-4.922,26.252-26.3,44.063-53.627,44.063Z" fill="#fff"/>
        <path id="Caminho_54" data-name="Caminho 54" d="M2528.739,3089.754h28.238V3194.2h-28.238Zm.052-40.178h28.132v26.251h-28.132Z" fill="#fff"/>
        <path id="Caminho_55" data-name="Caminho 55" d="M2647.949,3169.052V3194.2h-20.062c-22.98,0-37.1-14.119-37.1-37.293v-44.448H2571.9v-6.1l41.248-43.852h5.4v27.254h28.818v22.7h-28.343v40.7c0,10.092,5.8,15.894,16.088,15.894Z" fill="#fff"/>
        <path id="Caminho_56" data-name="Caminho 56" d="M2750.545,3197.144c-26.215,0-43.729-14.963-43.87-37.346h27.534c.141,9.3,7.263,13.942,17.39,13.942,7.841,0,14.856-3.551,14.856-10.531,0-7.139-9.056-9.3-20.1-11.146-16.685-2.777-37.909-7.244-37.909-31.859,0-19.763,16.81-33.408,42.023-33.408s41.76,14.032,41.866,34.9h-26.8c-.106-8.3-5.926-12.4-15.773-12.4-8.79,0-13.978,4.027-13.978,10.006,0,6.962,8.915,8.58,19.763,10.549,17.038,3.059,38.789,6.664,38.789,32.108,0,21.31-17.425,35.183-43.8,35.183Z" fill="#fff"/>
        <path id="Caminho_57" data-name="Caminho 57" d="M2913.711,3089.754l-45.522,103.053c-12.52,28.308-23.526,39.034-46.964,39.034h-21.858l10.219-25.389h9.774c13.61,0,17.145-3.622,23.562-19.412l.4-.848-44.246-96.438H2829.8L2857.666,3154l26.013-64.251Z" fill="#fff"/>
        <path id="Caminho_58" data-name="Caminho 58" d="M2961.556,3197.144c-26.216,0-43.729-14.963-43.87-37.346h27.534c.141,9.3,7.263,13.942,17.389,13.942,7.842,0,14.856-3.551,14.856-10.531,0-7.139-9.055-9.3-20.1-11.146-16.686-2.777-37.909-7.244-37.909-31.859,0-19.763,16.809-33.408,42.023-33.408s41.759,14.032,41.865,34.9h-26.8c-.107-8.3-5.926-12.4-15.773-12.4-8.791,0-13.978,4.027-13.978,10.006,0,6.962,8.914,8.58,19.762,10.549,17.038,3.059,38.79,6.664,38.79,32.108,0,21.31-17.425,35.183-43.8,35.183Z" fill="#fff"/>
        <path id="Caminho_59" data-name="Caminho 59" d="M3088.922,3169.052V3194.2H3068.86c-22.979,0-37.1-14.119-37.1-37.293v-44.448h-18.885v-6.1l41.248-43.852h5.4v27.254h28.819v22.7H3060v40.7c0,10.092,5.8,15.894,16.088,15.894Z" fill="#fff"/>
        <path id="Caminho_60" data-name="Caminho 60" d="M3208.607,3141.6a65.583,65.583,0,0,1-.545,8.28h-79.046c2.455,14.255,11.825,22.1,25.524,22.1,9.811,0,17.865-4.642,22.154-12.115h29.68c-7.6,22.77-27.587,37.276-51.833,37.276-30.84,0-54.173-23.876-54.173-55.174,0-31.457,23.175-55.177,54.173-55.177,32.071,0,54.068,24.722,54.068,54.807Zm-78.846-11.007h50.612c-3.992-12.769-13.161-19.693-25.833-19.693C3141.967,3110.905,3133.041,3118.237,3129.761,3130.6Z" fill="#fff"/>
        <path id="Caminho_61" data-name="Caminho 61" d="M3384.293,3128.7V3194.2h-28.238V3133.36c0-13.943-5.468-21.293-15.7-21.293-12.607,0-20.08,9.284-20.08,25.635V3194.2H3292.74V3133.36c0-13.943-5.31-21.293-15.421-21.293-12.766,0-20.4,9.284-20.4,25.635V3194.2h-28.238V3089.754h19.727l5.294,12.948a40.165,40.165,0,0,1,31.155-15.428c13.283,0,24.263,6.214,30.319,16.713a39.508,39.508,0,0,1,32.329-16.713C3369.12,3087.274,3384.293,3104.224,3384.293,3128.7Z" fill="#fff"/>
        <path id="Caminho_62" data-name="Caminho 62" d="M3447.2,3197.144c-26.216,0-43.728-14.963-43.87-37.346h27.534c.141,9.3,7.263,13.942,17.39,13.942,7.841,0,14.856-3.551,14.856-10.531,0-7.139-9.055-9.3-20.1-11.146-16.687-2.777-37.909-7.244-37.909-31.859,0-19.763,16.809-33.408,42.023-33.408s41.759,14.032,41.865,34.9h-26.8c-.107-8.3-5.926-12.4-15.773-12.4-8.791,0-13.977,4.027-13.977,10.006,0,6.962,8.914,8.58,19.762,10.549,17.038,3.059,38.789,6.664,38.789,32.108,0,21.31-17.424,35.183-43.8,35.183Z" fill="#fff"/>
      </g>
      <g id="Grupo_32" data-name="Grupo 32">
        <path id="Caminho_63" data-name="Caminho 63" d="M2540.417,3292.618a13.866,13.866,0,0,1,7.411,12.786c0,8.586-7.55,15.448-16.853,15.448H2508.22v-53.531h22.136c9.232,0,16.094,5.888,16.094,13.765a14.081,14.081,0,0,1-6.034,11.532Zm-10.533,17.6c3.81,0,6.32-2.517,6.32-6.035,0-3.441-2.51-5.971-6.32-5.971H2519.6v12.006Zm5.333-27.328c0-3.359-2.33-5.708-5.965-5.708H2519.6V3288.6h9.649c3.651,0,5.965-2.364,5.965-5.708Z" fill="#fff"/>
        <path id="Caminho_64" data-name="Caminho 64" d="M2598.6,3279.494v41.3h-8.752l-.96-3.694a20.077,20.077,0,0,1-13.382,4.924c-12.423,0-21.663-9.378-21.663-21.878,0-12.451,9.24-21.753,21.663-21.753a20.139,20.139,0,0,1,13.567,5.051l1.193-3.946Zm-10.942,20.647a11.249,11.249,0,1,0-11.242,11.319A10.968,10.968,0,0,0,2587.654,3300.141Z" fill="#fff"/>
        <path id="Caminho_65" data-name="Caminho 65" d="M2628.532,3322.018a21.578,21.578,0,0,1-21.927-21.941c0-12.375,9.441-21.691,21.989-21.691,10.693,0,18.994,6.778,21,16.943h-11.088a10.617,10.617,0,0,0-9.976-6.445c-6.056,0-10.61,4.86-10.61,11.257s4.631,11.38,10.61,11.38c4.511,0,8.078-2.51,9.962-6.924h11.241c-1.946,10.379-10.4,17.422-21.2,17.422Z" fill="#fff"/>
        <path id="Caminho_66" data-name="Caminho 66" d="M2682.508,3320.851l-13.216-19.755v19.755h-11.165v-56.179h11.165v33.233l12.4-18.35h12.861l-13.969,19.666,15.457,21.63Z" fill="#fff"/>
        <path id="Caminho_67" data-name="Caminho 67" d="M2739.411,3300.057a25.917,25.917,0,0,1-.216,3.274h-31.254c.97,5.636,4.675,8.739,10.091,8.739a9.8,9.8,0,0,0,8.76-4.79h11.735a21.135,21.135,0,0,1-20.494,14.739c-12.194,0-21.42-9.441-21.42-21.816,0-12.438,9.163-21.816,21.42-21.816,12.681,0,21.378,9.774,21.378,21.67Zm-31.176-4.352h20.011c-1.578-5.049-5.2-7.787-10.214-7.787C2713.061,3287.918,2709.532,3290.817,2708.235,3295.705Z" fill="#fff"/>
        <path id="Caminho_68" data-name="Caminho 68" d="M2786.149,3295.824v25.027h-11.165v-23.22c0-6.243-2.371-9.253-7.2-9.253-5.756,0-9.267,4.122-9.267,10.768v21.705h-11.166v-41.3h7.662l2.176,5.1a17.729,17.729,0,0,1,13.681-6.085C2780.281,3278.575,2786.149,3285.367,2786.149,3295.824Z" fill="#fff"/>
        <path id="Caminho_69" data-name="Caminho 69" d="M2837.866,3264.672v56.18h-8.246l-1.318-3.44a19.723,19.723,0,0,1-12.934,4.671c-12.527,0-21.711-9.379-21.711-21.879s9.184-21.816,21.711-21.816a19.918,19.918,0,0,1,11.332,3.42v-17.137Zm-10.331,35.532a11.249,11.249,0,1,0-11.255,11.318A10.986,10.986,0,0,0,2827.535,3300.2Z" fill="#fff"/>
        <path id="Caminho_70" data-name="Caminho 70" d="M2906.961,3300.057a25.917,25.917,0,0,1-.216,3.274h-31.253c.969,5.636,4.675,8.739,10.091,8.739a9.8,9.8,0,0,0,8.759-4.79h11.735a21.134,21.134,0,0,1-20.494,14.739c-12.193,0-21.419-9.441-21.419-21.816,0-12.438,9.163-21.816,21.419-21.816,12.681,0,21.378,9.774,21.378,21.67Zm-31.175-4.352H2895.8c-1.578-5.049-5.2-7.787-10.214-7.787C2880.612,3287.918,2877.083,3290.817,2875.786,3295.705Z" fill="#fff"/>
        <path id="Caminho_71" data-name="Caminho 71" d="M2975.221,3279.494v41.3h-8.751l-.96-3.694a20.076,20.076,0,0,1-13.382,4.924c-12.423,0-21.663-9.378-21.663-21.878,0-12.451,9.24-21.753,21.663-21.753a20.139,20.139,0,0,1,13.567,5.051l1.193-3.946Zm-10.942,20.647a11.249,11.249,0,1,0-11.241,11.319A10.967,10.967,0,0,0,2964.279,3300.141Z" fill="#fff"/>
        <path id="Caminho_72" data-name="Caminho 72" d="M2985.379,3303.415v-23.86h11.165v22.588c0,5.874,3.108,9.378,8.267,9.378s8.2-3.58,8.2-9.378v-22.588h11.165v23.86c0,11.151-7.689,18.6-19.368,18.6S2985.379,3314.566,2985.379,3303.415Z" fill="#fff"/>
        <path id="Caminho_73" data-name="Caminho 73" d="M3059.613,3310.91v9.941h-7.933c-9.085,0-14.668-5.583-14.668-14.746v-17.574h-7.466v-2.412l16.309-17.339h2.134v10.775h11.394v8.976h-11.206v16.094c0,3.99,2.294,6.285,6.361,6.285Z" fill="#fff"/>
        <path id="Caminho_74" data-name="Caminho 74" d="M3064.14,3300.2c0-12.528,9.531-21.816,22.323-21.816,12.729,0,22.323,9.3,22.323,21.816,0,12.451-9.594,21.816-22.323,21.816C3073.671,3322.019,3064.14,3312.654,3064.14,3300.2Zm33.328,0c0-6.687-4.567-11.318-11.005-11.318s-11,4.631-11,11.318,4.567,11.318,11,11.318S3097.468,3306.892,3097.468,3300.2Z" fill="#fff"/>
        <path id="Caminho_75" data-name="Caminho 75" d="M3178.313,3294.955v25.9h-11.165V3296.8c0-5.513-2.162-8.419-6.208-8.419-4.985,0-7.94,3.671-7.94,10.136v22.337h-10.886V3296.8c0-5.513-2.1-8.419-6.1-8.419-5.047,0-8.064,3.671-8.064,10.136v22.337h-11.164v-41.3h7.8l2.093,5.12a15.879,15.879,0,0,1,12.318-6.1,13.387,13.387,0,0,1,11.988,6.608,15.621,15.621,0,0,1,12.782-6.608C3172.314,3278.575,3178.313,3285.277,3178.313,3294.955Z" fill="#fff"/>
        <path id="Caminho_76" data-name="Caminho 76" d="M3230.563,3279.494v41.3h-8.752l-.96-3.694a20.075,20.075,0,0,1-13.382,4.924c-12.423,0-21.662-9.378-21.662-21.878,0-12.451,9.239-21.753,21.662-21.753a20.136,20.136,0,0,1,13.567,5.051l1.193-3.946Zm-10.942,20.647a11.249,11.249,0,1,0-11.242,11.319A10.968,10.968,0,0,0,3219.621,3300.141Z" fill="#fff"/>
        <path id="Caminho_77" data-name="Caminho 77" d="M3281.7,3304.6a20.875,20.875,0,0,1-19.522,17.363l-.383,1.313c4.159.588,6.953,3.176,6.953,7.15,0,4.734-4.24,7.9-9.879,7.9h-5.047v-5.68h4.582a2.589,2.589,0,0,0,2.891-2.516c0-1.5-1.182-2.5-2.891-2.5h-3.066l-.577-.7,1.5-5.292a21.518,21.518,0,0,1-17.688-21.557c0-12.375,9.442-21.691,21.99-21.691,10.693,0,18.994,6.779,21,16.943h-11.088a10.618,10.618,0,0,0-9.977-6.445c-6.056,0-10.609,4.86-10.609,11.256s4.63,11.381,10.609,11.381c4.512,0,8.079-2.51,9.963-6.924H3281.7Z" fill="#fff"/>
        <path id="Caminho_78" data-name="Caminho 78" d="M3331.123,3279.492v41.3h-8.753l-.96-3.7a20.068,20.068,0,0,1-13.382,4.925c-12.423,0-21.662-9.379-21.662-21.878,0-12.452,9.239-21.754,21.662-21.754a20.133,20.133,0,0,1,13.567,5.051l1.193-3.946Zm-29.344-4.833h-6.16v-.8c0-6.348,3.268-10.394,8.823-10.394a10.6,10.6,0,0,1,6.7,2.489,6.49,6.49,0,0,0,3.81,1.7c1.612,0,2.725-1.272,2.725-3.163v-.689h6.174v.842c0,6.409-3.344,10.393-8.76,10.393-3.108,0-5.3-1.474-7.168-2.579-1.3-.771-2.37-1.466-3.4-1.466a2.886,2.886,0,0,0-2.739,3.087Zm18.4,25.481a11.249,11.249,0,1,0-11.241,11.317A10.966,10.966,0,0,0,3320.18,3300.14Z" fill="#fff"/>
        <path id="Caminho_79" data-name="Caminho 79" d="M3339.133,3300.2c0-12.528,9.532-21.816,22.323-21.816,12.73,0,22.324,9.3,22.324,21.816,0,12.451-9.594,21.816-22.324,21.816C3348.665,3322.019,3339.133,3312.654,3339.133,3300.2Zm33.329,0c0-6.687-4.568-11.318-11.006-11.318s-11.005,4.631-11.005,11.318,4.568,11.318,11.005,11.318S3372.462,3306.892,3372.462,3300.2Z" fill="#fff"/>
      </g>
    </g>
    <g id="Grupo_36" data-name="Grupo 36">
      <g id="Grupo_34" data-name="Grupo 34">
        <path id="Caminho_80" data-name="Caminho 80" d="M2987.09,2978.324l177.165-92.025V2843.65l-175.893-91.16-128.3,253.742,41.823,21.685,106.641-211.97,94.554,49.026-78.317,40.691Z" fill="#75f695"/>
      </g>
      <g id="Grupo_35" data-name="Grupo 35">
        <path id="Caminho_81" data-name="Caminho 81" d="M2788.92,2916.149l78.317-40.691,37.674-72.659-177.165,92.025v42.651l174.155,90.617-20.741-63.569Z" fill="#51b784"/>
      </g>
    </g>
  </g>
</svg>
