<svg xmlns="http://www.w3.org/2000/svg" width="198.62" height="66.536" viewBox="0 0 198.62 66.536">
  <g id="Grupo_4208" data-name="Grupo 4208" transform="translate(0 0)">
    <g id="Grupo_4206" data-name="Grupo 4206">
      <g id="Grupo_4203" data-name="Grupo 4203">
        <path id="Caminho_1635" data-name="Caminho 1635" d="M396.608,100.2H217.667a9.851,9.851,0,0,1-9.84-9.84V43.508a9.851,9.851,0,0,1,9.84-9.84H396.608a9.851,9.851,0,0,1,9.839,9.84V90.364A9.85,9.85,0,0,1,396.608,100.2ZM217.667,35.992a7.524,7.524,0,0,0-7.516,7.516V90.364a7.524,7.524,0,0,0,7.516,7.516H396.608a7.523,7.523,0,0,0,7.514-7.516V43.508a7.523,7.523,0,0,0-7.514-7.516Z" transform="translate(-207.827 -33.668)" fill="#fff"/>
      </g>
      <g id="Grupo_4204" data-name="Grupo 4204" transform="translate(60.451 25.883)">
        <path id="Caminho_1636" data-name="Caminho 1636" d="M279.131,66.676a8.6,8.6,0,0,1-2.371,6.366,9.24,9.24,0,0,1-7.007,2.825A10.023,10.023,0,0,1,262.734,58.8a9.6,9.6,0,0,1,7.019-2.862,9.829,9.829,0,0,1,3.916.8,7.855,7.855,0,0,1,2.984,2.131l-1.679,1.678a6.437,6.437,0,0,0-5.222-2.265A7.728,7.728,0,0,0,264.546,71.4a7.593,7.593,0,0,0,10.536-.014,5.984,5.984,0,0,0,1.6-3.863h-6.926V65.237H279A8.222,8.222,0,0,1,279.131,66.676Z" transform="translate(-259.844 -55.94)" fill="#fff"/>
        <path id="Caminho_1637" data-name="Caminho 1637" d="M279.2,63.1a6.85,6.85,0,0,1,9.645,0,7.474,7.474,0,0,1,0,9.937,6.85,6.85,0,0,1-9.645,0,7.47,7.47,0,0,1,0-9.937Zm1.826,8.392a4.122,4.122,0,0,0,5.994,0,5.264,5.264,0,0,0,0-6.847,4.124,4.124,0,0,0-5.994,0,5.264,5.264,0,0,0,0,6.847Z" transform="translate(-257.012 -55.1)" fill="#fff"/>
        <path id="Caminho_1638" data-name="Caminho 1638" d="M291.468,63.1a6.85,6.85,0,0,1,9.645,0,7.474,7.474,0,0,1,0,9.937,6.85,6.85,0,0,1-9.645,0,7.47,7.47,0,0,1,0-9.937Zm1.824,8.392a4.123,4.123,0,0,0,6,0,5.267,5.267,0,0,0,0-6.847,4.126,4.126,0,0,0-6,0,5.264,5.264,0,0,0,0,6.847Z" transform="translate(-255.023 -55.1)" fill="#fff"/>
        <path id="Caminho_1639" data-name="Caminho 1639" d="M308.262,80.781a5.916,5.916,0,0,1-3.784-1.159,6.8,6.8,0,0,1-2.1-2.651l2.238-.932a3.662,3.662,0,0,0,1.371,1.784,3.793,3.793,0,0,0,2.278.719,4.193,4.193,0,0,0,3.183-1.212,4.56,4.56,0,0,0,1.159-3.29V72.789H312.5a4.994,4.994,0,0,1-1.812,1.6,5.419,5.419,0,0,1-2.637.64,5.739,5.739,0,0,1-4.37-2,7.6,7.6,0,0,1,0-9.911,5.742,5.742,0,0,1,4.37-2,5.431,5.431,0,0,1,2.637.639,5,5,0,0,1,1.812,1.6h.106V61.545h2.345V73.934a6.507,6.507,0,0,1-1.945,5.1A6.848,6.848,0,0,1,308.262,80.781Zm.186-7.992a3.908,3.908,0,0,0,2.945-1.28,5.482,5.482,0,0,0,0-6.873,4,4,0,0,0-5.875.013,5.393,5.393,0,0,0,0,6.847A3.9,3.9,0,0,0,308.448,72.789Z" transform="translate(-253.035 -55.1)" fill="#fff"/>
        <path id="Caminho_1640" data-name="Caminho 1640" d="M317.565,75.381h-2.451V56.306h2.451Z" transform="translate(-250.883 -55.881)" fill="#fff"/>
        <path id="Caminho_1641" data-name="Caminho 1641" d="M325.12,75.027a6.293,6.293,0,0,1-4.808-1.972,6.984,6.984,0,0,1-1.852-4.981,7.189,7.189,0,0,1,1.8-4.9,5.838,5.838,0,0,1,4.6-2.051,6.021,6.021,0,0,1,4.649,1.892,7.172,7.172,0,0,1,1.746,5.062l-.027.452H320.911a4.431,4.431,0,0,0,1.319,3.117,4,4,0,0,0,2.837,1.146,3.518,3.518,0,0,0,3.571-2.238l2.184.906a5.855,5.855,0,0,1-2.1,2.544A6.12,6.12,0,0,1,325.12,75.027Zm3.518-8.525a3.48,3.48,0,0,0-1.026-2.131,3.666,3.666,0,0,0-2.811-1.012,3.515,3.515,0,0,0-2.357.852,4.356,4.356,0,0,0-1.372,2.292Z" transform="translate(-250.34 -55.1)" fill="#fff"/>
        <path id="Caminho_1642" data-name="Caminho 1642" d="M338.105,75.381h-2.452V56.306h6.5a6.032,6.032,0,0,1,4.2,1.611,5.544,5.544,0,0,1,0,8.127,6.027,6.027,0,0,1-4.2,1.611h-4.049Zm0-10.07h4.1a3.169,3.169,0,0,0,2.478-1.04,3.281,3.281,0,0,0,0-4.581,3.165,3.165,0,0,0-2.478-1.04h-4.1Z" transform="translate(-247.552 -55.881)" fill="#fff"/>
        <path id="Caminho_1643" data-name="Caminho 1643" d="M350.208,75.381h-2.45V56.306h2.45Z" transform="translate(-245.59 -55.881)" fill="#fff"/>
        <path id="Caminho_1644" data-name="Caminho 1644" d="M355.979,75.027a5.153,5.153,0,0,1-3.476-1.2,3.969,3.969,0,0,1-1.4-3.17,3.918,3.918,0,0,1,1.653-3.343,6.706,6.706,0,0,1,4.076-1.212,7.014,7.014,0,0,1,3.543.8v-.374a2.91,2.91,0,0,0-.985-2.3,3.538,3.538,0,0,0-2.424-.866,3.759,3.759,0,0,0-1.931.506,2.606,2.606,0,0,0-1.185,1.385l-2.238-.959a5.074,5.074,0,0,1,1.785-2.171,5.711,5.711,0,0,1,3.518-1,6.038,6.038,0,0,1,4.156,1.465,5.234,5.234,0,0,1,1.651,4.13V74.6h-2.345V72.789h-.106A4.808,4.808,0,0,1,355.979,75.027Zm.4-2.238a3.992,3.992,0,0,0,2.758-1.133,3.507,3.507,0,0,0,1.238-2.676,4.832,4.832,0,0,0-3.117-.853,4.052,4.052,0,0,0-2.69.773,2.318,2.318,0,0,0-.905,1.812,1.744,1.744,0,0,0,.826,1.519A3.292,3.292,0,0,0,356.379,72.789Z" transform="translate(-245.047 -55.1)" fill="#fff"/>
        <path id="Caminho_1645" data-name="Caminho 1645" d="M366.365,80.3h-2.531l3.037-6.58-5.382-12.229h2.664l3.891,9.38h.053l3.783-9.38h2.664Z" transform="translate(-243.363 -55.041)" fill="#fff"/>
      </g>
      <g id="Grupo_4205" data-name="Grupo 4205" transform="translate(14.724 14.553)">
        <path id="Caminho_1646" data-name="Caminho 1646" d="M220.506,67.089q0-9.138,0-18.278a2.743,2.743,0,0,1,.674-2c.206-.22.354-.278.607-.021q6.15,6.276,12.318,12.531,3.992,4.055,7.992,8.1c.259.261.281.4.007.672q-9.8,9.746-19.574,19.52a.673.673,0,0,1-1.059.063,2.487,2.487,0,0,1-.965-2.112q0-5.413-.007-10.826,0-3.826,0-7.654Z" transform="translate(-220.497 -46.12)" fill="#fff"/>
        <path id="Caminho_1647" data-name="Caminho 1647" d="M222.521,46.191a2.228,2.228,0,0,1,1.188.33q12.516,7.013,25.037,14.019c.385.215.377.335.08.626q-2.8,2.754-5.568,5.539c-.2.2-.322.316-.589.043q-9.959-10.156-19.934-20.294C222.679,46.4,222.634,46.33,222.521,46.191Z" transform="translate(-220.168 -46.191)" fill="#fff"/>
        <path id="Caminho_1648" data-name="Caminho 1648" d="M224.128,84.367q9.084-9.183,18.16-18.377c.375-.381.55-.33.886.02,1.535,1.6,3.094,3.176,4.658,4.745.275.275.3.388-.076.593q-11.662,6.385-23.314,12.79A3.215,3.215,0,0,0,224.128,84.367Z" transform="translate(-219.908 -43.024)" fill="#fff"/>
        <path id="Caminho_1649" data-name="Caminho 1649" d="M256,65.189a1.909,1.909,0,0,1-.84,1.531,10.663,10.663,0,0,1-1.159.707c-2.351,1.3-4.709,2.587-7.054,3.9a.527.527,0,0,1-.767-.1q-2.5-2.589-5.048-5.137c-.246-.249-.253-.384,0-.633q2.96-2.916,5.89-5.863a.473.473,0,0,1,.683-.1c2.322,1.317,4.654,2.614,6.983,3.919A2.138,2.138,0,0,1,256,65.189Z" transform="translate(-217.181 -44.051)" fill="#fff"/>
      </g>
    </g>
    <g id="Grupo_4207" data-name="Grupo 4207" transform="translate(60.965 11.082)">
      <path id="Caminho_1650" data-name="Caminho 1650" d="M261.956,45.211a3.722,3.722,0,0,1,2.38.624,3.167,3.167,0,0,1,1.23,2.581A3.055,3.055,0,0,1,264.279,51a3.676,3.676,0,0,1-2.342.614h-1.651v-6.4Zm-.423,5.327h.385a2.678,2.678,0,0,0,1.564-.423,2.083,2.083,0,0,0,.8-1.7,2.135,2.135,0,0,0-.787-1.708,2.612,2.612,0,0,0-1.575-.423h-.385Z" transform="translate(-260.286 -42.879)" fill="#fff"/>
      <path id="Caminho_1651" data-name="Caminho 1651" d="M267.065,45.211v6.4h-1.247v-6.4Z" transform="translate(-259.389 -42.879)" fill="#fff"/>
      <path id="Caminho_1652" data-name="Caminho 1652" d="M271.351,46.69a1.25,1.25,0,0,0-1.046-.547c-.672,0-.884.422-.884.75a.539.539,0,0,0,.2.431,2.162,2.162,0,0,0,.767.365,3.729,3.729,0,0,1,1.3.643,1.746,1.746,0,0,1,.546,1.345,2.06,2.06,0,0,1-2.227,2.1,2.635,2.635,0,0,1-2.207-1.209l.816-.777a1.5,1.5,0,0,0,1.343.854.9.9,0,0,0,.989-.883.741.741,0,0,0-.25-.575,2.844,2.844,0,0,0-.989-.471,3.128,3.128,0,0,1-1.066-.557,1.494,1.494,0,0,1-.508-1.191,1.861,1.861,0,0,1,2.053-1.88,2.461,2.461,0,0,1,1.814.748Z" transform="translate(-259.068 -42.899)" fill="#fff"/>
      <path id="Caminho_1653" data-name="Caminho 1653" d="M274.416,45.211a2.3,2.3,0,0,1,1.69.489,2.039,2.039,0,0,1,.653,1.546,2.06,2.06,0,0,1-.529,1.429,2.189,2.189,0,0,1-1.621.566H273.8v2.371h-1.248v-6.4Zm-.614,2.955h.509a1.277,1.277,0,0,0,.815-.2.954.954,0,0,0,.346-.748.883.883,0,0,0-.356-.73,1.5,1.5,0,0,0-.882-.2H273.8Z" transform="translate(-258.297 -42.879)" fill="#fff"/>
      <path id="Caminho_1654" data-name="Caminho 1654" d="M283.531,48.436a3.417,3.417,0,1,1-3.416-3.349A3.24,3.24,0,0,1,283.531,48.436Zm-1.285,0a2.132,2.132,0,1,0-2.13,2.208A2.09,2.09,0,0,0,282.246,48.436Z" transform="translate(-257.625 -42.899)" fill="#fff"/>
      <path id="Caminho_1655" data-name="Caminho 1655" d="M283.568,51.612v-6.4h.863l3.9,4.271V45.211h1.247v6.4h-.863l-3.9-4.28v4.28Z" transform="translate(-256.511 -42.879)" fill="#fff"/>
      <path id="Caminho_1656" data-name="Caminho 1656" d="M292.072,43.856l-1.612,1.095-.518-.461,1.305-1.285Zm-.825,1.68v6.4H290v-6.4Z" transform="translate(-255.478 -43.204)" fill="#fff"/>
      <path id="Caminho_1657" data-name="Caminho 1657" d="M293.071,45.211l1.708,4.3,1.707-4.3h1.364l-2.707,6.4h-.75l-2.687-6.4Z" transform="translate(-255.191 -42.879)" fill="#fff"/>
      <path id="Caminho_1658" data-name="Caminho 1658" d="M301.188,46.285h-2.3v1.431h2.207V48.79h-2.207v1.748h2.3v1.074h-3.552v-6.4h3.552Z" transform="translate(-254.23 -42.879)" fill="#fff"/>
      <path id="Caminho_1659" data-name="Caminho 1659" d="M302.978,45.211v5.327h1.978v1.074h-3.225v-6.4Z" transform="translate(-253.566 -42.879)" fill="#fff"/>
      <path id="Caminho_1660" data-name="Caminho 1660" d="M307.172,51.612v-6.4h.863l3.9,4.271V45.211h1.247v6.4h-.862l-3.9-4.28v4.28Z" transform="translate(-252.684 -42.879)" fill="#fff"/>
      <path id="Caminho_1661" data-name="Caminho 1661" d="M317.484,50.269H314.9l-.567,1.343h-1.353l2.754-6.4h.98l2.678,6.4H318.05Zm-.364-1.017-.912-2.3-.912,2.3Z" transform="translate(-251.742 -42.879)" fill="#fff"/>
    </g>
  </g>
</svg>
