<svg xmlns="http://www.w3.org/2000/svg" width="187.243" height="66.593" viewBox="0 0 187.243 66.593">
  <g id="Grupo_4202" data-name="Grupo 4202" transform="translate(0 0)">
    <g id="Grupo_4200" data-name="Grupo 4200">
      <g id="Grupo_4198" data-name="Grupo 4198" transform="translate(16.203 13.009)">
        <g id="Grupo_4197" data-name="Grupo 4197">
          <path id="Caminho_1613" data-name="Caminho 1613" d="M68.834,45.862h-15.1a3.527,3.527,0,0,0-3.526,3.52V82.941a3.523,3.523,0,0,0,3.526,3.515h15.1a3.524,3.524,0,0,0,3.525-3.515V49.382A3.528,3.528,0,0,0,68.834,45.862Zm-9.3,3.567h3.5a.414.414,0,1,1,0,.827h-3.5a.414.414,0,0,1,0-.827Zm1.75,35.157a1.823,1.823,0,1,1,1.822-1.82A1.822,1.822,0,0,1,61.28,84.586Zm8.937-5.205H52.348V52.952H70.217Z" transform="translate(-50.206 -45.862)" fill="#fff"/>
          <path id="Caminho_1614" data-name="Caminho 1614" d="M145.433,61.847l-3.368,1.018v2.83h-2.256v2.574h2.256v7.8c0,1.951.38,3.342,1.151,4.166a4.1,4.1,0,0,0,3.18,1.24,7.774,7.774,0,0,0,2.671-.382l-.1-2.6a6.247,6.247,0,0,1-1.525.15c-1.338,0-2.011-.946-2.011-2.853V68.269h3.792V65.695h-3.792Z" transform="translate(-35.678 -43.27)" fill="#fff"/>
          <path id="Caminho_1615" data-name="Caminho 1615" d="M168.5,65.716a5.2,5.2,0,0,0-1.718,2.445h-.094l-.128-2.96h-2.99q.092,2.2.092,4.862v10.6H167.1V72.551a5.106,5.106,0,0,1,.859-3.051,3.252,3.252,0,0,1,2.8-1.366,6.192,6.192,0,0,1,1.082.087V64.949a5.412,5.412,0,0,0-.854-.058A4.126,4.126,0,0,0,168.5,65.716Z" transform="translate(-31.826 -42.777)" fill="#fff"/>
          <path id="Caminho_1616" data-name="Caminho 1616" d="M178.93,64.858a6.607,6.607,0,0,0-5.41,2.478,8.906,8.906,0,0,0-1.909,5.827,7.813,7.813,0,0,0,2.057,5.676,7.5,7.5,0,0,0,5.641,2.112A12.828,12.828,0,0,0,184.5,80l-.542-2.388a11.248,11.248,0,0,1-4.167.737,5.084,5.084,0,0,1-3.369-1.083,4.47,4.47,0,0,1-1.5-3.492h10.308a8.651,8.651,0,0,0,.124-1.562,8.383,8.383,0,0,0-1.367-4.873A5.748,5.748,0,0,0,178.93,64.858Zm-4.007,6.455a5.1,5.1,0,0,1,1.018-2.666,3.292,3.292,0,0,1,2.735-1.406,3.021,3.021,0,0,1,2.739,1.434,4.713,4.713,0,0,1,.665,2.638Z" transform="translate(-30.522 -42.782)" fill="#fff"/>
          <path id="Caminho_1617" data-name="Caminho 1617" d="M156.452,64.89a7.193,7.193,0,0,0-5.611,2.286,8.4,8.4,0,0,0-2.081,5.883,8.233,8.233,0,0,0,2.015,5.7,6.921,6.921,0,0,0,5.432,2.257,7.294,7.294,0,0,0,5.661-2.348,8.488,8.488,0,0,0,2.031-5.857,8.144,8.144,0,0,0-1.969-5.658A7.045,7.045,0,0,0,156.452,64.89Zm2.925,11.667a3.413,3.413,0,0,1-3.076,1.875,3.454,3.454,0,0,1-3.118-1.836,6.834,6.834,0,0,1-.926-3.648,6.943,6.943,0,0,1,.926-3.706,3.564,3.564,0,0,1,6.237,0,6.93,6.93,0,0,1,.918,3.646A6.8,6.8,0,0,1,159.377,76.557Z" transform="translate(-34.227 -42.777)" fill="#fff"/>
          <path id="Caminho_1618" data-name="Caminho 1618" d="M84.627,60.013l-6.9,21.439h3.56L83.2,75.159H90.17l2,6.293h3.662L88.895,60.013Zm-.824,12.5,1.782-5.6c.471-1.785.807-3.128,1.022-4.041h.06q.791,3.176,1.087,4.041l1.806,5.6Z" transform="translate(-45.743 -43.568)" fill="#fff"/>
          <path id="Caminho_1619" data-name="Caminho 1619" d="M135.6,69.154a11.272,11.272,0,0,1-3.115-1.648,2.654,2.654,0,0,1-.984-2.1,2.575,2.575,0,0,1,.858-1.947,4.268,4.268,0,0,1,2.844-.888,8.5,8.5,0,0,1,4.114.988l.867-2.8a10.48,10.48,0,0,0-4.868-1.016,7.884,7.884,0,0,0-5.267,1.684,5.407,5.407,0,0,0-1.983,4.329q0,4.039,5.627,6.136a8.372,8.372,0,0,1,2.958,1.654,3,3,0,0,1,.888,2.187,2.857,2.857,0,0,1-1.078,2.346,4.71,4.71,0,0,1-3.025.874,9.6,9.6,0,0,1-4.957-1.335l-.8,2.861a10.238,10.238,0,0,0,5.556,1.334,8.46,8.46,0,0,0,5.842-1.875,5.729,5.729,0,0,0,1.9-4.453,5.464,5.464,0,0,0-1.3-3.718A10.459,10.459,0,0,0,135.6,69.154Z" transform="translate(-37.644 -43.612)" fill="#fff"/>
          <path id="Caminho_1620" data-name="Caminho 1620" d="M103.5,64.89a5.746,5.746,0,0,0-5.224,2.76h-.059L98.023,65.2H95q.131,2.6.131,5.081v16.65h3.433V78.814a4.759,4.759,0,0,0,4.414,2.2,6.3,6.3,0,0,0,4.765-2.03,8.743,8.743,0,0,0,2.146-6.237,8.533,8.533,0,0,0-1.827-5.692A5.736,5.736,0,0,0,103.5,64.89Zm1.812,11.924a3.516,3.516,0,0,1-3.024,1.495A3.447,3.447,0,0,1,99.6,77.152,4.112,4.112,0,0,1,98.564,74.3V71.727a4.58,4.58,0,0,1,.157-1.051,3.951,3.951,0,0,1,1.353-2.22,3.644,3.644,0,0,1,5.3.691,6.347,6.347,0,0,1,1.015,3.717A6.589,6.589,0,0,1,105.307,76.814Z" transform="translate(-42.943 -42.777)" fill="#fff"/>
          <path id="Caminho_1621" data-name="Caminho 1621" d="M118.109,64.89a5.742,5.742,0,0,0-5.218,2.76h-.059l-.2-2.449h-3.015q.126,2.6.127,5.081v16.65h3.438V78.814a4.756,4.756,0,0,0,4.409,2.2,6.3,6.3,0,0,0,4.766-2.03,8.743,8.743,0,0,0,2.148-6.237,8.5,8.5,0,0,0-1.832-5.692A5.719,5.719,0,0,0,118.109,64.89Zm1.815,11.924a3.512,3.512,0,0,1-3.027,1.495,3.445,3.445,0,0,1-2.683-1.156,4.122,4.122,0,0,1-1.031-2.851V71.727a4.494,4.494,0,0,1,.155-1.051,3.973,3.973,0,0,1,1.355-2.22,3.647,3.647,0,0,1,5.3.691,6.373,6.373,0,0,1,1.018,3.717A6.573,6.573,0,0,1,119.924,76.814Z" transform="translate(-40.573 -42.777)" fill="#fff"/>
        </g>
      </g>
      <g id="Grupo_4199" data-name="Grupo 4199">
        <path id="Caminho_1622" data-name="Caminho 1622" d="M214.529,101.261H45.239a8.98,8.98,0,0,1-8.975-8.966V43.646a8.986,8.986,0,0,1,8.975-8.978h169.29a8.987,8.987,0,0,1,8.978,8.978V92.295A8.982,8.982,0,0,1,214.529,101.261ZM45.239,36.992a6.659,6.659,0,0,0-6.651,6.653V92.295a6.653,6.653,0,0,0,6.651,6.642h169.29a6.655,6.655,0,0,0,6.653-6.642V43.646a6.661,6.661,0,0,0-6.653-6.653Z" transform="translate(-36.264 -34.668)" fill="#fff"/>
      </g>
    </g>
    <g id="Grupo_4201" data-name="Grupo 4201" transform="translate(49.563 13.468)">
      <path id="Caminho_1623" data-name="Caminho 1623" d="M81.337,47a5.41,5.41,0,0,1,3.456.905,4.6,4.6,0,0,1,1.784,3.75,4.435,4.435,0,0,1-1.868,3.749,5.339,5.339,0,0,1-3.4.891h-2.4V47Zm-.614,7.735h.558a3.889,3.889,0,0,0,2.272-.614,3.023,3.023,0,0,0,1.156-2.466,3.1,3.1,0,0,0-1.142-2.481,3.784,3.784,0,0,0-2.286-.614h-.558Z" transform="translate(-78.912 -46.136)" fill="#fff"/>
      <path id="Caminho_1624" data-name="Caminho 1624" d="M87.61,46.736a1.018,1.018,0,1,1-1.018,1.018A1.024,1.024,0,0,1,87.61,46.736Zm.85,3.569V56.34h-1.7V50.3Z" transform="translate(-77.667 -46.179)" fill="#fff"/>
      <path id="Caminho_1625" data-name="Caminho 1625" d="M92.935,51.269a1.409,1.409,0,0,0-.989-.4c-.4,0-.655.2-.655.488,0,.153.07.39.544.544l.4.126a3.1,3.1,0,0,1,1.533.865,1.747,1.747,0,0,1,.307,1,2,2,0,0,1-.669,1.533,2.533,2.533,0,0,1-1.812.641,3.047,3.047,0,0,1-2.342-1l.893-1.031a1.867,1.867,0,0,0,1.338.7c.474,0,.837-.237.837-.655a.673.673,0,0,0-.53-.614l-.39-.139a3.237,3.237,0,0,1-1.3-.724,1.62,1.62,0,0,1-.46-1.157,1.791,1.791,0,0,1,.628-1.366,2.487,2.487,0,0,1,1.575-.432,3.009,3.009,0,0,1,1.923.641Z" transform="translate(-77.235 -45.709)" fill="#fff"/>
      <path id="Caminho_1626" data-name="Caminho 1626" d="M96.14,59.062h-1.7V49.834h1.7v.781a2.3,2.3,0,0,1,1.965-.976,2.883,2.883,0,0,1,2.063.809,3.619,3.619,0,0,1-.042,4.836,2.96,2.96,0,0,1-2.049.781,2.288,2.288,0,0,1-1.937-.975Zm.4-7.513a1.6,1.6,0,0,0-.572,1.3,1.714,1.714,0,0,0,.558,1.31,1.652,1.652,0,0,0,1.114.4,1.608,1.608,0,0,0,1.142-.432,1.771,1.771,0,0,0,.531-1.282,1.823,1.823,0,0,0-.516-1.269,1.778,1.778,0,0,0-1.158-.432A1.534,1.534,0,0,0,96.545,51.548Z" transform="translate(-76.394 -45.709)" fill="#fff"/>
      <path id="Caminho_1627" data-name="Caminho 1627" d="M106.912,50.49a3.253,3.253,0,0,1,0,4.725,3.927,3.927,0,0,1-4.879,0,3.251,3.251,0,0,1,0-4.725,3.923,3.923,0,0,1,4.879,0Zm-.739,2.37a1.7,1.7,0,1,0-1.7,1.7A1.685,1.685,0,0,0,106.173,52.859Z" transform="translate(-75.328 -45.709)" fill="#fff"/>
      <path id="Caminho_1628" data-name="Caminho 1628" d="M108.1,49.834h1.7v.781a2.218,2.218,0,0,1,1.869-.976,2.308,2.308,0,0,1,1.784.739,2.545,2.545,0,0,1,.474,1.7v3.791h-1.7V52.58a1.724,1.724,0,0,0-.321-1.185,1.087,1.087,0,0,0-.794-.307,1.16,1.16,0,0,0-1.046.53,2.088,2.088,0,0,0-.265,1.171v3.08h-1.7Z" transform="translate(-74.18 -45.709)" fill="#fff"/>
      <path id="Caminho_1629" data-name="Caminho 1629" d="M116.2,50.328v6.035h-1.7V50.328Zm.781-3.289-1.534,2.341-.919-.321,1.059-2.466Z" transform="translate(-73.141 -46.203)" fill="#fff"/>
      <path id="Caminho_1630" data-name="Caminho 1630" d="M118.583,49.807l1.589,3.4,1.59-3.4h1.894l-3.038,6.035h-.891l-3.039-6.035Z" transform="translate(-72.787 -45.681)" fill="#fff"/>
      <path id="Caminho_1631" data-name="Caminho 1631" d="M129.254,54.183a2.983,2.983,0,0,1-2.969,1.882,3.162,3.162,0,0,1-2.314-.85,3.046,3.046,0,0,1-.948-2.356,3.211,3.211,0,0,1,.92-2.37,3.091,3.091,0,0,1,2.272-.851,2.883,2.883,0,0,1,2.356.99A3.609,3.609,0,0,1,129.3,53v.141H124.78a1.78,1.78,0,0,0,.292,1.017,1.437,1.437,0,0,0,1.213.572,1.555,1.555,0,0,0,1.407-.795Zm-1.562-2.133a1.448,1.448,0,0,0-2.858,0Z" transform="translate(-71.76 -45.709)" fill="#fff"/>
      <path id="Caminho_1632" data-name="Caminho 1632" d="M131.251,46.257V56.418h-1.7V46.257Z" transform="translate(-70.701 -46.257)" fill="#fff"/>
      <path id="Caminho_1633" data-name="Caminho 1633" d="M135.2,49.834h1.7v.781a2.218,2.218,0,0,1,1.869-.976,2.308,2.308,0,0,1,1.784.739,2.539,2.539,0,0,1,.474,1.7v3.791h-1.7V52.58a1.724,1.724,0,0,0-.321-1.185,1.085,1.085,0,0,0-.794-.307,1.16,1.16,0,0,0-1.046.53,2.088,2.088,0,0,0-.265,1.171v3.08h-1.7Z" transform="translate(-69.785 -45.709)" fill="#fff"/>
      <path id="Caminho_1634" data-name="Caminho 1634" d="M146.281,49.834h1.7v6.035h-1.7v-.78a2.165,2.165,0,0,1-1.854.975,3.062,3.062,0,0,1-3.081-3.219,3.018,3.018,0,0,1,3-3.206,2.187,2.187,0,0,1,1.937.976ZM143.1,52.845a1.673,1.673,0,1,0,1.673-1.7A1.653,1.653,0,0,0,143.1,52.845Z" transform="translate(-68.789 -45.709)" fill="#fff"/>
    </g>
  </g>
</svg>
