<svg xmlns="http://www.w3.org/2000/svg" width="29.093" height="29.093" viewBox="0 0 29.093 29.093">
  <g id="sign-in-alt" transform="translate(0 29.093) rotate(-90)">
    <path id="Caminho_1679" data-name="Caminho 1679" d="M22.911,0H6.182A6.128,6.128,0,0,0,0,6.061V9.7a1.212,1.212,0,0,0,2.424,0V6.061A3.7,3.7,0,0,1,6.182,2.424H22.911a3.7,3.7,0,0,1,3.758,3.637V23.032a3.7,3.7,0,0,1-3.758,3.637H6.182a3.7,3.7,0,0,1-3.758-3.637V19.4A1.212,1.212,0,0,0,0,19.4v3.637a6.128,6.128,0,0,0,6.182,6.061H22.911a6.128,6.128,0,0,0,6.182-6.061V6.061A6.128,6.128,0,0,0,22.911,0Z" transform="translate(0 0)" fill="#b0b6ba"/>
    <path id="Caminho_1680" data-name="Caminho 1680" d="M3,13.485A1.212,1.212,0,0,0,4.212,14.7h0L20.2,14.661l-5.24,5.24a1.212,1.212,0,1,0,1.714,1.714l5.559-5.559a3.637,3.637,0,0,0,0-5.142L16.675,5.355a1.212,1.212,0,1,0-1.714,1.714l5.167,5.167-15.915.036A1.212,1.212,0,0,0,3,13.485Z" transform="translate(0.637 1.061)" fill="#b0b6ba"/>
  </g>
</svg>
