<svg xmlns="http://www.w3.org/2000/svg" width="21.659" height="21.708" viewBox="0 0 21.659 21.708">
  <g id="Alert" transform="translate(1.028 1)">
    <path id="Caminho_1" data-name="Caminho 1" d="M18.462,17.245H12.3a2.464,2.464,0,0,1-4.927,0H1.217a1.183,1.183,0,0,1-1.109-.862,1.315,1.315,0,0,1,.37-1.355,4.959,4.959,0,0,0,1.971-3.942v-3.7a7.391,7.391,0,0,1,14.781,0v3.7A4.959,4.959,0,0,0,19.2,15.027a1.166,1.166,0,0,1,.37,1.355A1.183,1.183,0,0,1,18.462,17.245Z" transform="translate(-0.063)" fill="none" stroke="#9fa5a7" stroke-width="2" fill-rule="evenodd"/>
  </g>
</svg>
