<svg xmlns="http://www.w3.org/2000/svg" width="21.521" height="25.696" viewBox="0 0 21.521 25.696">
  <g id="Grupo_2334" data-name="Grupo 2334" transform="translate(-4759.583 -202.867)">
    <path id="Caminho_1127" data-name="Caminho 1127" d="M93.1,12.137a5.872,5.872,0,0,0,4.291-1.778,5.872,5.872,0,0,0,1.778-4.291,5.873,5.873,0,0,0-1.778-4.291,6.067,6.067,0,0,0-8.582,0,5.872,5.872,0,0,0-1.778,4.291,5.872,5.872,0,0,0,1.778,4.291A5.874,5.874,0,0,0,93.1,12.137ZM89.853,2.822a4.591,4.591,0,0,1,6.493,0,4.387,4.387,0,0,1,1.345,3.247,4.387,4.387,0,0,1-1.345,3.247,4.59,4.59,0,0,1-6.493,0,4.386,4.386,0,0,1-1.346-3.247A4.387,4.387,0,0,1,89.853,2.822Zm0,0" transform="translate(4677.084 203.117)" fill="#9fa5a7" stroke="#9fa5a7" stroke-width="0.5"/>
    <path id="Caminho_1128" data-name="Caminho 1128" d="M20.971,254.52a14.99,14.99,0,0,0-.2-1.592,12.542,12.542,0,0,0-.392-1.6,7.906,7.906,0,0,0-.658-1.493,5.63,5.63,0,0,0-.992-1.293,4.375,4.375,0,0,0-1.425-.9,4.926,4.926,0,0,0-1.82-.329,1.847,1.847,0,0,0-.986.418c-.3.193-.641.416-1.027.662a5.886,5.886,0,0,1-1.329.586,5.162,5.162,0,0,1-3.252,0,5.867,5.867,0,0,1-1.329-.586c-.382-.244-.728-.467-1.028-.663a1.845,1.845,0,0,0-.986-.418,4.92,4.92,0,0,0-1.819.33,4.371,4.371,0,0,0-1.426.9,5.627,5.627,0,0,0-.992,1.293,7.922,7.922,0,0,0-.658,1.493,12.573,12.573,0,0,0-.391,1.6,14.886,14.886,0,0,0-.2,1.593C.017,255,0,255.5,0,256.009a4.184,4.184,0,0,0,1.243,3.165,4.473,4.473,0,0,0,3.2,1.168H16.577a4.473,4.473,0,0,0,3.2-1.168,4.182,4.182,0,0,0,1.243-3.165C21.021,255.5,21,255,20.971,254.52Zm-2.21,3.584a3.011,3.011,0,0,1-2.184.761H4.445a3.011,3.011,0,0,1-2.184-.761,2.732,2.732,0,0,1-.784-2.1c0-.472.016-.938.047-1.386a13.428,13.428,0,0,1,.185-1.434,11.088,11.088,0,0,1,.344-1.411,6.449,6.449,0,0,1,.536-1.214,4.171,4.171,0,0,1,.729-.956,2.9,2.9,0,0,1,.948-.59,3.4,3.4,0,0,1,1.163-.224c.052.027.144.08.293.177.3.2.653.423,1.04.67a7.316,7.316,0,0,0,1.669.746,6.637,6.637,0,0,0,4.161,0,7.323,7.323,0,0,0,1.67-.746c.4-.253.736-.472,1.039-.67.149-.1.241-.15.293-.177a3.4,3.4,0,0,1,1.163.224,2.907,2.907,0,0,1,.948.59,4.161,4.161,0,0,1,.729.956,6.427,6.427,0,0,1,.536,1.214,11.06,11.06,0,0,1,.344,1.411,13.539,13.539,0,0,1,.185,1.434h0c.031.446.047.912.047,1.385A2.732,2.732,0,0,1,18.761,258.1Zm0,0" transform="translate(4759.833 -32.029)" fill="#9fa5a7" stroke="#9fa5a7" stroke-width="0.5"/>
  </g>
</svg>
