<svg xmlns="http://www.w3.org/2000/svg" width="23.43" height="22.532" viewBox="0 0 23.43 22.532">
  <path id="star" d="M4.788,31.492a1.111,1.111,0,0,1-.665-.218A1.139,1.139,0,0,1,3.679,30.1l1.377-6.059L.39,19.951a1.138,1.138,0,0,1,.644-1.992L7.207,17.4l2.44-5.712a1.138,1.138,0,0,1,2.092,0l2.44,5.712,6.172.561A1.141,1.141,0,0,1,21,19.955l-4.666,4.093,1.377,6.059a1.138,1.138,0,0,1-1.695,1.226l-5.323-3.18C5.19,31.438,4.989,31.492,4.788,31.492ZM7.161,17.511Zm7.064,0Z" transform="translate(1.02 -10)" fill="none" stroke="#9fa5a7" stroke-width="2"/>
</svg>
