<svg xmlns="http://www.w3.org/2000/svg" width="29.235" height="26.988" viewBox="0 0 29.235 26.988">
  <path id="Caminho_1448" data-name="Caminho 1448" d="M26.315,24.3a7.793,7.793,0,0,0-6.7,4.018,7.793,7.793,0,0,0-6.7-4.018,8.281,8.281,0,0,0-7.914,8.584c0,8.252,13.342,17.78,13.907,18.181h0a1.226,1.226,0,0,0,1.409,0h0c.565-.4,13.907-9.929,13.907-18.181A8.281,8.281,0,0,0,26.315,24.3ZM20.369,47.991a1.215,1.215,0,0,1-1.5,0C14.708,44.747,7.44,38.015,7.44,32.884a5.843,5.843,0,0,1,5.48-6.15,5.843,5.843,0,0,1,5.433,5.049,1.275,1.275,0,0,0,1.264,1.1h0a1.279,1.279,0,0,0,1.264-1.1,5.848,5.848,0,0,1,5.433-5.049,5.847,5.847,0,0,1,5.48,6.15C31.795,38.015,24.527,44.747,20.369,47.991Z" transform="translate(-5 -24.3)" fill="#fff"/>
</svg>
