<svg xmlns="http://www.w3.org/2000/svg" width="26.338" height="27" viewBox="0 0 26.338 27">
  <g id="Grupo_4308" data-name="Grupo 4308" transform="translate(-1262 -47)">
    <g id="shopping-cart" transform="translate(1262 47)">
      <path id="Caminho_1449" data-name="Caminho 1449" d="M25.552,4.587a3.367,3.367,0,0,0-2.591-1.212H4.772L4.725,2.98A3.375,3.375,0,0,0,1.375,0h-.25a1.125,1.125,0,0,0,0,2.25h.25a1.125,1.125,0,0,1,1.117.993L4.04,16.406a5.625,5.625,0,0,0,5.587,4.969H21.375a1.125,1.125,0,0,0,0-2.25H9.627a3.375,3.375,0,0,1-3.173-2.25h13.41A5.625,5.625,0,0,0,25.4,12.248l.883-4.9a3.368,3.368,0,0,0-.731-2.763ZM24.075,6.95l-.884,4.9a3.375,3.375,0,0,1-3.327,2.777H6.1l-1.059-9H22.961A1.125,1.125,0,0,1,24.075,6.95Z" fill="#fff"/>
      <circle id="Elipse_140" data-name="Elipse 140" cx="2" cy="2" r="2" transform="translate(6 23)" fill="#fff"/>
      <circle id="Elipse_141" data-name="Elipse 141" cx="2" cy="2" r="2" transform="translate(17 23)" fill="#fff"/>
    </g>
  </g>
</svg>
