<svg xmlns="http://www.w3.org/2000/svg" width="48" height="48" viewBox="0 0 48 48">
  <circle id="Elipse_148" data-name="Elipse 148" cx="24" cy="24" r="24" fill="#fff"/>
  <g id="user-add_1_" data-name="user-add (1)" transform="translate(14 10.273)">
    <path id="Caminho_1681" data-name="Caminho 1681" d="M348.635,173.8h-2.086V171.71a1.043,1.043,0,1,0-2.086,0V173.8h-2.086a1.043,1.043,0,1,0,0,2.086h2.086v2.086a1.043,1.043,0,1,0,2.086,0v-2.086h2.086a1.043,1.043,0,0,0,0-2.086Z" transform="translate(-324.646 -161.9)" fill="#3f3f3f"/>
    <circle id="Elipse_146" data-name="Elipse 146" cx="6" cy="6" r="6" transform="translate(3.516 0.727)" fill="#3f3f3f"/>
    <path id="Caminho_1682" data-name="Caminho 1682" d="M9.387,298.667A9.4,9.4,0,0,0,0,308.054,1.043,1.043,0,0,0,1.043,309.1H17.73a1.043,1.043,0,0,0,1.043-1.043A9.4,9.4,0,0,0,9.387,298.667Z" transform="translate(0 -283.642)" fill="#3f3f3f"/>
  </g>
</svg>
