<svg id="edit" xmlns="http://www.w3.org/2000/svg" width="28" height="28" viewBox="0 0 28 28">
  <path id="Caminho_1724" data-name="Caminho 1724" d="M18.656.93,6.464,13.122A4.966,4.966,0,0,0,5,16.657V18a1,1,0,0,0,1,1H7.343a4.966,4.966,0,0,0,3.535-1.464L23.07,5.344a3.125,3.125,0,0,0,0-4.414,3.194,3.194,0,0,0-4.414,0Zm3,3L9.464,16.122A3.02,3.02,0,0,1,7.343,17H7v-.343a3.02,3.02,0,0,1,.878-2.121L20.07,2.344a1.148,1.148,0,0,1,1.586,0,1.123,1.123,0,0,1,0,1.586Z" transform="translate(4)" fill="#707070"/>
  <path id="Caminho_1725" data-name="Caminho 1725" d="M26.833,10.475a1.167,1.167,0,0,0-1.167,1.167V17.5H21A3.5,3.5,0,0,0,17.5,21v4.667H5.833a3.5,3.5,0,0,1-3.5-3.5V5.833a3.5,3.5,0,0,1,3.5-3.5H16.382a1.167,1.167,0,0,0,0-2.333H5.833A5.84,5.84,0,0,0,0,5.833V22.167A5.84,5.84,0,0,0,5.833,28H19.067a5.8,5.8,0,0,0,4.125-1.708l3.1-3.1A5.8,5.8,0,0,0,28,19.067V11.642A1.167,1.167,0,0,0,26.833,10.475ZM21.542,24.642a3.471,3.471,0,0,1-1.709.933V21A1.167,1.167,0,0,1,21,19.833h4.579a3.519,3.519,0,0,1-.933,1.708Z" fill="#707070"/>
</svg>
