<svg id="trash" xmlns="http://www.w3.org/2000/svg" width="23.333" height="28" viewBox="0 0 23.333 28">
  <path id="Caminho_1721" data-name="Caminho 1721" d="M24.167,4.667H20.55A5.844,5.844,0,0,0,14.833,0H12.5A5.844,5.844,0,0,0,6.783,4.667H3.167A1.167,1.167,0,0,0,3.167,7H4.333V22.167A5.84,5.84,0,0,0,10.167,28h7A5.84,5.84,0,0,0,23,22.167V7h1.167a1.167,1.167,0,0,0,0-2.333ZM12.5,2.333h2.333a3.507,3.507,0,0,1,3.3,2.333H9.2a3.507,3.507,0,0,1,3.3-2.333Zm8.167,19.833a3.5,3.5,0,0,1-3.5,3.5h-7a3.5,3.5,0,0,1-3.5-3.5V7h14Z" transform="translate(-2)" fill="#707070"/>
  <path id="Caminho_1722" data-name="Caminho 1722" d="M10.042,18.333a1.042,1.042,0,0,0,1.042-1.042v-6.25a1.042,1.042,0,1,0-2.083,0v6.25A1.042,1.042,0,0,0,10.042,18.333Z" transform="translate(-0.736 2.292)" fill="#707070"/>
  <path id="Caminho_1723" data-name="Caminho 1723" d="M14.042,18.333a1.042,1.042,0,0,0,1.042-1.042v-6.25a1.042,1.042,0,1,0-2.083,0v6.25A1.042,1.042,0,0,0,14.042,18.333Z" transform="translate(-0.014 2.292)" fill="#707070"/>
</svg>
