<svg id="comment-alt" xmlns="http://www.w3.org/2000/svg" width="28" height="28" viewBox="0 0 28 28">
  <path id="Caminho_1726" data-name="Caminho 1726" d="M23.334,0H4.667A4.667,4.667,0,0,0,0,4.667v14a4.667,4.667,0,0,0,4.667,4.667H8.05l5.193,4.39a1.167,1.167,0,0,0,1.507,0l5.2-4.39h3.383A4.667,4.667,0,0,0,28,18.667v-14A4.667,4.667,0,0,0,23.334,0Zm2.333,18.667A2.333,2.333,0,0,1,23.334,21H19.95a2.333,2.333,0,0,0-1.506.552L14,25.305,9.559,21.552h0A2.333,2.333,0,0,0,8.05,21H4.667a2.333,2.333,0,0,1-2.333-2.333v-14A2.333,2.333,0,0,1,4.667,2.333H23.334a2.333,2.333,0,0,1,2.333,2.333Z" fill="#707070"/>
  <path id="Caminho_1727" data-name="Caminho 1727" d="M7.167,7.333H13A1.167,1.167,0,1,0,13,5H7.167a1.167,1.167,0,1,0,0,2.333Z" transform="translate(1 0.833)" fill="#707070"/>
  <path id="Caminho_1728" data-name="Caminho 1728" d="M18.834,9H7.167a1.167,1.167,0,1,0,0,2.333H18.834a1.167,1.167,0,0,0,0-2.333Z" transform="translate(1 1.5)" fill="#707070"/>
  <path id="Caminho_1729" data-name="Caminho 1729" d="M18.834,13H7.167a1.167,1.167,0,1,0,0,2.333H18.834a1.167,1.167,0,0,0,0-2.333Z" transform="translate(1 2.167)" fill="#707070"/>
</svg>
