<svg xmlns="http://www.w3.org/2000/svg" width="102.328" height="106.319" viewBox="0 0 102.328 106.319">
  <path id="bg" d="M637.129,1358c25.119,0,31.951,6.649,31.951,32.4,0,25.19-7.01,31.682-32.129,31.682-25.677,0-31.951-6.672-31.951-31.861C605,1364.469,611.452,1358,637.129,1358Z" transform="translate(-605 -1357.999)" fill="#043271"/>
  <g id="comment" transform="translate(5.573 9.971)">
    <path id="Caminho_1715" data-name="Caminho 1715" d="M96.755,47.321A46.168,46.168,0,0,0,16.071,19.607a46.176,46.176,0,0,0,34.61,76.74h26.6A19.526,19.526,0,0,0,96.755,76.869V47.321Zm-8.529,29.53A10.986,10.986,0,0,1,77.258,87.819H50.7A37.827,37.827,0,0,1,22.582,75.255a37.373,37.373,0,0,1-9.317-29.383A37.749,37.749,0,0,1,45.821,12.931a39.672,39.672,0,0,1,4.9-.312h.11a37.365,37.365,0,0,1,23.881,8.639A37.9,37.9,0,0,1,88.244,47.725V76.851Z" transform="translate(0 0)" fill="#fff"/>
    <path id="Caminho_1716" data-name="Caminho 1716" d="M153.306,157.213h15.645a3.907,3.907,0,0,0,0-7.813H153.306a3.907,3.907,0,0,0,0,7.813Z" transform="translate(-118.325 -118.733)" fill="#fff"/>
    <path id="Caminho_1717" data-name="Caminho 1717" d="M184.6,234.7h-31.29a3.907,3.907,0,1,0,0,7.813h31.309a3.907,3.907,0,1,0-.018-7.813Z" transform="translate(-118.326 -188.387)" fill="#fff"/>
    <path id="Caminho_1718" data-name="Caminho 1718" d="M184.6,320h-31.29a3.907,3.907,0,1,0,0,7.813h31.309A3.907,3.907,0,1,0,184.6,320Z" transform="translate(-118.326 -258.042)" fill="#fff"/>
  </g>
</svg>
