<svg xmlns="http://www.w3.org/2000/svg" width="99.324" height="106.101" viewBox="0 0 99.324 106.101">
  <g id="Grupo_5422" data-name="Grupo 5422" transform="translate(-606.162 -1381.175)">
    <g id="icon" transform="translate(14.162 14.176)">
      <path id="bg" d="M637.063,1358c25.068,0,31.885,6.635,31.885,32.331,0,25.138-7,31.617-32.063,31.617-25.625,0-31.885-6.658-31.885-31.8C605,1364.455,611.438,1358,637.063,1358Z" transform="translate(-13 9)" fill="#043271"/>
    </g>
    <g id="money" transform="translate(549.236 1331.027)">
      <path id="Caminho_1712" data-name="Caminho 1712" d="M233.1,169.7v-7.283h-6.947V155.9h-7.307v6.514h-3.1a3.857,3.857,0,0,0-3.846,3.846v13.509a3.857,3.857,0,0,0,3.846,3.846h10.047v6.61H211.9v7.283h6.947v6.514h7.307v-6.514h3.1a3.857,3.857,0,0,0,3.846-3.846V180.153a3.857,3.857,0,0,0-3.846-3.846H219.207V169.7H233.1Z" transform="translate(-112.426 -69.886)" fill="#fff"/>
      <path id="Caminho_1713" data-name="Caminho 1713" d="M110.075,63.9a46.175,46.175,0,1,0,46.175,46.175A46.173,46.173,0,0,0,110.075,63.9Zm0,83.167a36.993,36.993,0,1,1,36.993-36.993A36.992,36.992,0,0,1,110.075,147.067Z" transform="translate(0 0)" fill="#fff"/>
    </g>
  </g>
</svg>
