<svg xmlns="http://www.w3.org/2000/svg" width="101.442" height="109.422" viewBox="0 0 101.442 109.422">
  <g id="icon" transform="translate(-603 -1366.999)">
    <path id="bg" d="M638.092,1358c25.872,0,32.908,6.848,32.908,33.368,0,25.945-7.22,32.631-33.092,32.631-26.447,0-32.908-6.872-32.908-32.816C605,1364.662,611.645,1358,638.092,1358Z" transform="translate(-2 9)" fill="#043271"/>
    <path id="megaphone" d="M67.251,0A3.956,3.956,0,0,0,63.3,3.956c0,11.666-10.218,15.824-19.78,15.824H15.824A15.824,15.824,0,0,0,0,35.6v7.912a15.74,15.74,0,0,0,5.989,12.3L20.12,87.35A12.79,12.79,0,0,0,31.8,94.942a11.8,11.8,0,0,0,10.76-16.615l-8.7-18.988h9.657c9.562,0,19.78,4.158,19.78,15.824a3.956,3.956,0,0,0,7.912,0V3.956A3.956,3.956,0,0,0,67.251,0Zm-31.9,81.567A3.889,3.889,0,0,1,31.8,87.03a4.874,4.874,0,0,1-4.454-2.9L16.239,59.339h8.917ZM63.3,57.756a30.552,30.552,0,0,0-19.78-6.329H15.824a7.912,7.912,0,0,1-7.912-7.912V35.6a7.912,7.912,0,0,1,7.912-7.912H43.516a30.552,30.552,0,0,0,19.78-6.31Zm31.252,3.37A3.956,3.956,0,0,1,89.239,62.9l-7.912-3.956a3.958,3.958,0,1,1,3.537-7.081l7.912,3.956a3.956,3.956,0,0,1,1.772,5.289Zm-14.993-35.6a3.956,3.956,0,0,1,1.772-5.309l7.912-3.956a3.958,3.958,0,1,1,3.537,7.081L84.863,27.3A3.956,3.956,0,0,1,79.555,25.524Zm-.435,14.036A3.956,3.956,0,0,1,83.075,35.6h7.912a3.956,3.956,0,1,1,0,7.912H83.075A3.956,3.956,0,0,1,79.119,39.559Z" transform="translate(609.477 1381.479)" fill="#fff"/>
  </g>
</svg>
