<svg xmlns="http://www.w3.org/2000/svg" width="49.87" height="60.923" viewBox="0 0 49.87 60.923">
  <g id="icon" transform="translate(0)">
    <path id="bg" d="M623.424,1358c14.4,0,18.322,3.813,18.322,18.578,0,14.445-4.02,18.168-18.425,18.168-14.725,0-18.322-3.826-18.322-18.271C605,1361.709,608.7,1358,623.424,1358Z" transform="translate(-605 -1357.999)" fill="#248ce8"/>
    <path id="bulb" d="M36.028,5.037A19.817,19.817,0,0,0,9.323,34.321a13.793,13.793,0,0,1,4.7,10.056v.355a8.135,8.135,0,0,0,8.127,8.126H23.51a8.135,8.135,0,0,0,8.127-8.126V43.523a11.723,11.723,0,0,1,4.255-8.809,19.807,19.807,0,0,0,.137-29.68ZM23.51,48.453H22.145a3.726,3.726,0,0,1-3.722-3.722s-.015-.573-.018-.683h8.827v.683a3.726,3.726,0,0,1-3.722,3.722Zm9.47-17.048a16.885,16.885,0,0,0-5.206,8.239H25.03V23.823a6.607,6.607,0,0,0,4.4-6.2,2.2,2.2,0,0,0-4.4,0,2.2,2.2,0,0,1-4.4,0,2.2,2.2,0,0,0-4.4,0,6.607,6.607,0,0,0,4.4,6.2V39.644H17.714A19.015,19.015,0,0,0,12.322,31.1a15.416,15.416,0,0,1,8.7-26.588,16.412,16.412,0,0,1,1.824-.1A15.243,15.243,0,0,1,33.093,8.323a15.4,15.4,0,0,1-.106,23.082Z" transform="translate(7.221 8.065)" fill="#505050"/>
  </g>
</svg>
