<svg xmlns="http://www.w3.org/2000/svg" width="89.571" height="109.422" viewBox="0 0 89.571 109.422">
  <g id="icon" transform="translate(-603 -1366.999)">
    <path id="bg" d="M638.092,1358c25.872,0,32.908,6.848,32.908,33.368,0,25.945-7.22,32.631-33.092,32.631-26.447,0-32.908-6.872-32.908-32.816C605,1364.662,611.645,1358,638.092,1358Z" transform="translate(-2 9)" fill="#043271"/>
    <path id="bulb" d="M62.326,9.05a35.593,35.593,0,0,0-47.965,52.6,24.773,24.773,0,0,1,8.433,18.061v.637a14.612,14.612,0,0,0,14.6,14.6h2.452a14.612,14.612,0,0,0,14.6-14.6V78.172A21.055,21.055,0,0,1,62.081,62.35a35.576,35.576,0,0,0,.245-53.309ZM39.842,87.029H37.39a6.693,6.693,0,0,1-6.685-6.685s-.028-1.028-.032-1.226H46.527v1.226a6.693,6.693,0,0,1-6.685,6.685Zm17.009-30.62a30.327,30.327,0,0,0-9.351,14.8H42.572V42.79a11.867,11.867,0,0,0,7.911-11.139,3.956,3.956,0,0,0-7.911,0,3.956,3.956,0,0,1-7.911,0,3.956,3.956,0,0,0-7.911,0A11.867,11.867,0,0,0,34.661,42.79V71.207H29.431a34.152,34.152,0,0,0-9.683-15.351A27.689,27.689,0,0,1,35.377,8.1a29.477,29.477,0,0,1,3.275-.182,27.377,27.377,0,0,1,18.4,7.033,27.661,27.661,0,0,1-.19,41.458Z" transform="translate(618.354 1381.482)" fill="#fff"/>
  </g>
</svg>
